# xmcd CD database file
#
# Track frame offsets:
#	150
#	17138
#	30416
#	41897
#	57298
#	72723
#	90932
#	104042
#	117894
#	130942
#	140852
#	154207
#	171318
#	185351
#	201372
#
# Disc length: 2941 seconds
#
# Revision: 0
# Processed by: cddbd v1.5.1PL0 Copyright (c) Steve Scherf et al.
# Submitted via: CdAid (MTCDDB.DLL V2003.12.21)
#
DISCID=e00b7b0f
DTITLE=Leonardo Paniagua - 30 Exitos - CD 2
DYEAR=1996
DGENRE=Latin
TTITLE0=Preciosa
TTITLE1=Sigamos Pecando
TTITLE2=Obsesion
TTITLE3=Me Muero Por Estar Contigo
TTITLE4=El O Yo
TTITLE5=Locuras Tengo De Ti
TTITLE6=Si Ardiera La Ciudad
TTITLE7=Los Hombres No Deben Llorar
TTITLE8=Por El Armor De Una Mujer
TTITLE9=El Anilo
TTITLE10=Mala, muy mala
TTITLE11=Jose Luis
TTITLE12=Homenaje A Nino Bravo
TTITLE13=Domingo En La Tarde
TTITLE14=Tu Nieto
EXTD=ID3G:  86 YEAR: 1996
EXTT0=
EXTT1=
EXTT2=
EXTT3=
EXTT4=
EXTT5=
EXTT6=
EXTT7=
EXTT8=
EXTT9=
EXTT10=
EXTT11=
EXTT12=
EXTT13=
EXTT14=
PLAYORDER=
